<svg width="200" height="43" viewBox="0 0 200 43" fill="none" xmlns="http://www.w3.org/2000/svg">
<path d="M59.2514 32.8892C55.7193 32.8892 52.9123 32.1221 50.8304 30.5881C48.7485 29.0308 47.6374 26.6484 47.4971 23.4408C47.4737 22.8132 47.462 21.7905 47.462 20.3727C47.462 18.9316 47.4737 17.8857 47.4971 17.2348C47.6374 14.1203 48.7719 11.7727 50.9006 10.1921C53.0292 8.58836 55.8129 7.78647 59.2514 7.78647C61.3567 7.78647 63.2865 8.10025 65.0409 8.72782C66.8187 9.35539 68.2573 10.3432 69.3567 11.6913C70.4795 13.0162 71.0526 14.6897 71.076 16.7119C71.076 16.9211 70.9941 17.107 70.8304 17.2697C70.69 17.4092 70.5146 17.4789 70.3041 17.4789H63.1462C62.7719 17.4789 62.4912 17.4092 62.3041 17.2697C62.1403 17.1303 61.9883 16.863 61.8479 16.4678C61.5906 15.7705 61.2514 15.2824 60.8304 15.0035C60.4093 14.7246 59.8713 14.5851 59.2164 14.5851C58.3976 14.5851 57.7661 14.8059 57.3216 15.2476C56.8772 15.6659 56.6433 16.3865 56.6199 17.4092C56.5965 18.0367 56.5848 19.0013 56.5848 20.303C56.5848 21.6046 56.5965 22.5924 56.6199 23.2665C56.6433 24.2892 56.8772 25.0213 57.3216 25.463C57.7661 25.8813 58.3976 26.0905 59.2164 26.0905C60.5497 26.0905 61.4269 25.463 61.8479 24.2078C61.9649 23.8127 62.1053 23.5454 62.269 23.4059C62.4561 23.2665 62.7485 23.1967 63.1462 23.1967H70.3041C70.5146 23.1967 70.69 23.2781 70.8304 23.4408C70.9941 23.5803 71.076 23.7546 71.076 23.9638C71.0526 25.9859 70.4795 27.6711 69.3567 29.0192C68.2573 30.344 66.8187 31.3203 65.0409 31.9478C63.2865 32.5754 61.3567 32.8892 59.2514 32.8892ZM74.8093 32.5405C74.552 32.5405 74.3298 32.4592 74.1427 32.2965C73.9555 32.1105 73.862 31.8781 73.862 31.5992V9.07647C73.862 8.82079 73.9555 8.59998 74.1427 8.41404C74.3298 8.22809 74.552 8.13512 74.8093 8.13512H81.6865C81.9439 8.13512 82.1661 8.22809 82.3532 8.41404C82.5403 8.59998 82.6339 8.82079 82.6339 9.07647V16.3981H88.3181V9.07647C88.3181 8.82079 88.4117 8.59998 88.5988 8.41404C88.786 8.22809 89.0082 8.13512 89.2655 8.13512H96.1427C96.4 8.13512 96.6222 8.22809 96.8094 8.41404C96.9965 8.59998 97.0901 8.82079 97.0901 9.07647V31.5992C97.0901 31.8548 96.9965 32.0757 96.8094 32.2616C96.6222 32.4476 96.4 32.5405 96.1427 32.5405H89.2655C89.0082 32.5405 88.786 32.4476 88.5988 32.2616C88.4117 32.0757 88.3181 31.8548 88.3181 31.5992V24.0684H82.6339V31.5992C82.6339 31.8548 82.5403 32.0757 82.3532 32.2616C82.1661 32.4476 81.9439 32.5405 81.6865 32.5405H74.8093ZM112.054 32.8892C108.545 32.8892 105.75 32.0873 103.668 30.4835C101.586 28.8797 100.475 26.5438 100.334 23.4757C100.311 22.8481 100.299 21.837 100.299 20.4424C100.299 19.0246 100.311 17.9903 100.334 17.3394C100.405 15.3405 100.931 13.6205 101.913 12.1794C102.919 10.7384 104.288 9.64593 106.019 8.90214C107.75 8.15836 109.761 7.78647 112.054 7.78647C114.346 7.78647 116.358 8.15836 118.089 8.90214C119.82 9.64593 121.177 10.7384 122.159 12.1794C123.165 13.6205 123.703 15.3405 123.773 17.3394C123.82 18.6411 123.843 19.6754 123.843 20.4424C123.843 21.2094 123.82 22.2205 123.773 23.4757C123.633 26.5438 122.522 28.8797 120.44 30.4835C118.358 32.0873 115.563 32.8892 112.054 32.8892ZM112.054 26.0905C112.849 26.0905 113.469 25.8581 113.913 25.3932C114.381 24.9284 114.627 24.2194 114.65 23.2665C114.697 21.9184 114.72 20.9305 114.72 20.303C114.72 19.6289 114.697 18.6643 114.65 17.4092C114.627 16.4562 114.381 15.7473 113.913 15.2824C113.446 14.8175 112.826 14.5851 112.054 14.5851C111.282 14.5851 110.662 14.8175 110.194 15.2824C109.726 15.7473 109.481 16.4562 109.457 17.4092C109.434 18.0367 109.422 19.0013 109.422 20.303C109.422 21.6046 109.434 22.5924 109.457 23.2665C109.481 24.2194 109.715 24.9284 110.159 25.3932C110.627 25.8581 111.258 26.0905 112.054 26.0905ZM138.095 32.8892C134.587 32.8892 131.791 32.0873 129.709 30.4835C127.627 28.8797 126.516 26.5438 126.376 23.4757C126.353 22.8481 126.341 21.837 126.341 20.4424C126.341 19.0246 126.353 17.9903 126.376 17.3394C126.446 15.3405 126.973 13.6205 127.955 12.1794C128.961 10.7384 130.329 9.64593 132.06 8.90214C133.791 8.15836 135.803 7.78647 138.095 7.78647C140.388 7.78647 142.399 8.15836 144.13 8.90214C145.861 9.64593 147.218 10.7384 148.201 12.1794C149.206 13.6205 149.744 15.3405 149.815 17.3394C149.861 18.6411 149.885 19.6754 149.885 20.4424C149.885 21.2094 149.861 22.2205 149.815 23.4757C149.674 26.5438 148.563 28.8797 146.481 30.4835C144.399 32.0873 141.604 32.8892 138.095 32.8892ZM138.095 26.0905C138.891 26.0905 139.511 25.8581 139.955 25.3932C140.423 24.9284 140.668 24.2194 140.692 23.2665C140.739 21.9184 140.762 20.9305 140.762 20.303C140.762 19.6289 140.739 18.6643 140.692 17.4092C140.668 16.4562 140.423 15.7473 139.955 15.2824C139.487 14.8175 138.867 14.5851 138.095 14.5851C137.323 14.5851 136.704 14.8175 136.236 15.2824C135.768 15.7473 135.522 16.4562 135.499 17.4092C135.475 18.0367 135.464 19.0013 135.464 20.303C135.464 21.6046 135.475 22.5924 135.499 23.2665C135.522 24.2194 135.756 24.9284 136.201 25.3932C136.668 25.8581 137.3 26.0905 138.095 26.0905ZM153.996 32.5405C153.739 32.5405 153.517 32.4476 153.33 32.2616C153.143 32.0757 153.049 31.8548 153.049 31.5992V9.07647C153.049 8.82079 153.143 8.59998 153.33 8.41404C153.517 8.22809 153.739 8.13512 153.996 8.13512H160.698C160.956 8.13512 161.178 8.22809 161.365 8.41404C161.552 8.59998 161.646 8.82079 161.646 9.07647V15.9797L165.611 8.90214C165.891 8.39079 166.359 8.13512 167.014 8.13512H174.768C174.979 8.13512 175.154 8.21647 175.295 8.37917C175.458 8.51863 175.54 8.69296 175.54 8.90214C175.54 9.0416 175.505 9.16944 175.435 9.28566L169.119 19.8148L176.032 31.39C176.102 31.483 176.137 31.6108 176.137 31.7735C176.137 31.9827 176.055 32.1686 175.891 32.3313C175.751 32.4708 175.575 32.5405 175.365 32.5405H167.365C166.967 32.5405 166.651 32.4592 166.418 32.2965C166.184 32.1105 166.02 31.9246 165.926 31.7386L161.646 24.1381V31.5992C161.646 31.8548 161.552 32.0757 161.365 32.2616C161.178 32.4476 160.956 32.5405 160.698 32.5405H153.996ZM187.52 32.8892C185.041 32.8892 182.936 32.5521 181.205 31.8781C179.497 31.204 178.211 30.3092 177.345 29.1935C176.48 28.0546 176.023 26.8111 175.977 25.463C175.977 25.2538 176.047 25.0794 176.187 24.94C176.351 24.7773 176.538 24.6959 176.749 24.6959H183.415C183.743 24.6959 184 24.7424 184.187 24.8354C184.398 24.9051 184.643 25.0562 184.924 25.2886C185.602 25.8232 186.468 26.0905 187.52 26.0905C188.316 26.0905 188.947 26.0092 189.415 25.8465C189.906 25.6605 190.152 25.4165 190.152 25.1143C190.152 24.6959 189.836 24.3821 189.205 24.173C188.573 23.9405 187.38 23.7081 185.626 23.4757C179.591 22.6854 176.573 20.1286 176.573 15.8054C176.573 14.2481 177.018 12.8651 177.906 11.6565C178.819 10.4246 180.082 9.4716 181.696 8.79755C183.31 8.1235 185.17 7.78647 187.275 7.78647C189.474 7.78647 191.404 8.15836 193.064 8.90214C194.725 9.64593 196 10.5873 196.889 11.7262C197.778 12.8419 198.246 13.9343 198.292 15.0035C198.292 15.2127 198.211 15.3986 198.047 15.5613C197.906 15.7008 197.743 15.7705 197.556 15.7705H190.538C190.211 15.7705 189.953 15.7357 189.766 15.6659C189.579 15.573 189.368 15.4219 189.135 15.2127C188.643 14.7943 188.023 14.5851 187.275 14.5851C186.152 14.5851 185.591 14.9105 185.591 15.5613C185.591 15.91 185.86 16.2005 186.398 16.433C186.959 16.6654 187.988 16.8746 189.485 17.0605C191.825 17.3627 193.696 17.8159 195.099 18.4203C196.526 19.0246 197.556 19.8381 198.187 20.8608C198.842 21.8603 199.17 23.127 199.17 24.6611C199.17 26.3113 198.667 27.764 197.661 29.0192C196.655 30.2511 195.263 31.204 193.485 31.8781C191.731 32.5521 189.743 32.8892 187.52 32.8892Z" fill="#2779F6"/>
<path d="M33.8371 8.64264H3.00508C1.34812 8.64264 0 9.98221 0 11.6287V29.5417C0 31.1883 1.34812 32.5279 3.00516 32.5279H4.76199V39.898C4.76199 40.2423 4.97082 40.5528 5.29088 40.6845C5.39688 40.7281 5.50812 40.7493 5.6185 40.7493C5.8415 40.7493 6.0607 40.6628 6.2245 40.5L14.2475 32.5277H33.837C35.494 32.5277 36.842 31.1882 36.842 29.5416V11.6287C36.8422 9.98221 35.494 8.64264 33.8371 8.64264ZM33.8371 30.8251H13.8922C13.6706 30.8251 13.4693 30.9095 13.3173 31.0467C13.3158 31.0479 13.3143 31.0494 13.3129 31.0506C13.3025 31.0602 13.2918 31.0695 13.2819 31.0795L6.47544 37.8427V31.6764C6.47544 31.6468 6.47392 31.6206 6.47094 31.5974C6.43076 31.1644 6.06456 30.8251 5.61822 30.8251H3.00508C2.29285 30.8251 1.71345 30.2493 1.71345 29.5416V11.6287C1.71345 10.921 2.29285 10.3453 3.00508 10.3453H33.837C34.5494 10.3453 35.1287 10.921 35.1287 11.6287V29.5417C35.1287 30.2493 34.5492 30.8251 33.8371 30.8251Z" fill="#2779F6"/>
<path d="M33.6257 9.87839H3.21638C2.40895 9.87839 1.75439 10.5288 1.75439 11.3311V29.9257C1.75439 30.728 2.40895 31.3784 3.21638 31.3784H33.6257C34.4332 31.3784 35.0877 30.728 35.0877 29.9257V11.3311C35.0877 10.5288 34.4332 9.87839 33.6257 9.87839Z" fill="#2779F6"/>
<path d="M34.2105 10.4595H3.80116C2.99373 10.4595 2.33917 11.1099 2.33917 11.9122V29.3446C2.33917 30.1469 2.99373 30.7973 3.80116 30.7973H34.2105C35.018 30.7973 35.6725 30.1469 35.6725 29.3446V11.9122C35.6725 11.1099 35.018 10.4595 34.2105 10.4595Z" fill="#1F64CC"/>
<path d="M33.6257 10.4595H3.21638C2.40895 10.4595 1.75439 11.1099 1.75439 11.9122V29.3446C1.75439 30.1469 2.40895 30.7973 3.21638 30.7973H33.6257C34.4332 30.7973 35.0877 30.1469 35.0877 29.3446V11.9122C35.0877 11.1099 34.4332 10.4595 33.6257 10.4595Z" fill="white"/>
<path d="M17.5439 9.87839H18.7134V22.6622L18.1286 22.0534L17.5439 22.6622V9.87839Z" fill="#2779F6"/>
<path d="M6.43274 38.3514V30.7973H13.4503L6.43274 38.3514Z" fill="white"/>
<path d="M7.00538 13.3649H4.5204C4.28493 13.3649 4.09409 13.5645 4.09409 13.8107C4.09409 14.057 4.28493 14.2567 4.5204 14.2567H7.00538C7.24082 14.2567 7.43169 14.0569 7.43169 13.8107C7.43169 13.5645 7.24076 13.3649 7.00538 13.3649Z" fill="#CDCDCD"/>
<path d="M11.436 15.9176H4.51988C4.28441 15.9176 4.09357 16.1172 4.09357 16.3634C4.09357 16.6097 4.28441 16.8094 4.51988 16.8094H11.436C11.6714 16.8094 11.8623 16.6097 11.8623 16.3634C11.8623 16.1172 11.6714 15.9176 11.436 15.9176Z" fill="#CDCDCD"/>
<path d="M15.3632 13.3649H9.49416C9.25872 13.3649 9.06784 13.5645 9.06784 13.8107C9.06784 14.057 9.25872 14.2567 9.49416 14.2567H15.3632C15.5985 14.2567 15.7895 14.0569 15.7895 13.8107C15.7895 13.5645 15.5985 13.3649 15.3632 13.3649Z" fill="#CDCDCD"/>
<path d="M15.3631 15.9176H13.8197C13.5843 15.9176 13.3934 16.1172 13.3934 16.3634C13.3934 16.6097 13.5843 16.8094 13.8197 16.8094H15.3631C15.5985 16.8094 15.7894 16.6097 15.7894 16.3634C15.7894 16.1172 15.5985 15.9176 15.3631 15.9176Z" fill="#CDCDCD"/>
<path d="M8.38059 18.4703H4.51988C4.28441 18.4703 4.09357 18.6699 4.09357 18.9162C4.09357 19.1625 4.28441 19.3621 4.51988 19.3621H8.38059C8.61602 19.3621 8.8069 19.1624 8.8069 18.9162C8.8069 18.6699 8.61602 18.4703 8.38059 18.4703Z" fill="#CDCDCD"/>
<path d="M15.3631 18.4703H10.646C10.4106 18.4703 10.2197 18.6699 10.2197 18.9162C10.2197 19.1625 10.4106 19.3621 10.646 19.3621H15.3631C15.5986 19.3621 15.7895 19.1624 15.7895 18.9162C15.7895 18.6699 15.5986 18.4703 15.3631 18.4703Z" fill="#CDCDCD"/>
<path d="M12.8775 20.7325H15.3625C15.598 20.7325 15.7888 20.9322 15.7888 21.1784C15.7888 21.4246 15.598 21.6243 15.3625 21.6243H12.8775C12.6421 21.6243 12.4512 21.4246 12.4512 21.1784C12.4512 20.9322 12.6422 20.7325 12.8775 20.7325Z" fill="#CDCDCD"/>
<path d="M8.44701 23.2852H15.3631C15.5986 23.2852 15.7894 23.4849 15.7894 23.7311C15.7894 23.9773 15.5986 24.177 15.3631 24.177H8.44701C8.21157 24.177 8.02069 23.9773 8.02069 23.7311C8.02069 23.4849 8.21157 23.2852 8.44701 23.2852Z" fill="#CDCDCD"/>
<path d="M4.51988 20.7325H10.3888C10.6243 20.7325 10.8152 20.9322 10.8152 21.1784C10.8152 21.4246 10.6243 21.6243 10.3888 21.6243H4.51988C4.28446 21.6243 4.09357 21.4246 4.09357 21.1784C4.09357 20.9321 4.28446 20.7325 4.51988 20.7325Z" fill="#CDCDCD"/>
<path d="M4.51994 23.2852H6.06328C6.29872 23.2852 6.4896 23.4849 6.4896 23.7311C6.4896 23.9773 6.29866 24.177 6.06328 24.177H4.51994C4.28451 24.177 4.09363 23.9773 4.09363 23.7311C4.09363 23.4848 4.28451 23.2852 4.51994 23.2852Z" fill="#CDCDCD"/>
<path d="M11.5025 25.838H15.3631C15.5986 25.838 15.7894 26.0376 15.7894 26.2838C15.7894 26.5301 15.5986 26.7297 15.3631 26.7297H11.5025C11.267 26.7297 11.0761 26.53 11.0761 26.2838C11.0761 26.0376 11.267 25.838 11.5025 25.838Z" fill="#CDCDCD"/>
<path d="M4.51985 25.838H9.23698C9.47241 25.838 9.66329 26.0376 9.66329 26.2838C9.66329 26.5301 9.47241 26.7297 9.23698 26.7297H4.51985C4.28442 26.7297 4.09354 26.53 4.09354 26.2838C4.09354 26.0376 4.28442 25.838 4.51985 25.838Z" fill="#CDCDCD"/>
<path d="M23.3872 13.3649H20.8958C20.6597 13.3649 20.4684 13.5645 20.4684 13.8107C20.4684 14.057 20.6597 14.2567 20.8958 14.2567H23.3872C23.6232 14.2567 23.8146 14.0569 23.8146 13.8107C23.8146 13.5645 23.6232 13.3649 23.3872 13.3649Z" fill="#CDCDCD"/>
<path d="M27.8292 15.9176H20.8953C20.6592 15.9176 20.4678 16.1172 20.4678 16.3634C20.4678 16.6097 20.6592 16.8094 20.8953 16.8094H27.8292C28.0652 16.8094 28.2566 16.6097 28.2566 16.3634C28.2566 16.1172 28.0652 15.9176 27.8292 15.9176Z" fill="#CDCDCD"/>
<path d="M31.7665 13.3649H25.8824C25.6463 13.3649 25.455 13.5645 25.455 13.8107C25.455 14.057 25.6463 14.2567 25.8824 14.2567H31.7665C32.0025 14.2567 32.1939 14.0569 32.1939 13.8107C32.1939 13.5645 32.0025 13.3649 31.7665 13.3649Z" fill="#CDCDCD"/>
<path d="M31.7664 15.9176H30.2191C29.983 15.9176 29.7917 16.1172 29.7917 16.3634C29.7917 16.6097 29.9831 16.8094 30.2191 16.8094H31.7664C32.0024 16.8094 32.1938 16.6097 32.1938 16.3634C32.1938 16.1172 32.0024 15.9176 31.7664 15.9176Z" fill="#CDCDCD"/>
<path d="M24.7659 18.4703H20.8953C20.6592 18.4703 20.4678 18.6699 20.4678 18.9162C20.4678 19.1625 20.6592 19.3621 20.8953 19.3621H24.7659C25.0019 19.3621 25.1933 19.1624 25.1933 18.9162C25.1933 18.6699 25.0019 18.4703 24.7659 18.4703Z" fill="#CDCDCD"/>
<path d="M31.7665 18.4703H27.0372C26.8012 18.4703 26.6098 18.6699 26.6098 18.9162C26.6098 19.1625 26.8012 19.3621 27.0372 19.3621H31.7665C32.0025 19.3621 32.1939 19.1624 32.1939 18.9162C32.1939 18.6699 32.0025 18.4703 31.7665 18.4703Z" fill="#CDCDCD"/>
<path d="M29.2745 20.7325H31.7659C32.0019 20.7325 32.1933 20.9322 32.1933 21.1784C32.1933 21.4246 32.0019 21.6243 31.7659 21.6243H29.2745C29.0384 21.6243 28.8471 21.4246 28.8471 21.1784C28.8471 20.9322 29.0384 20.7325 29.2745 20.7325Z" fill="#CDCDCD"/>
<path d="M24.8325 23.2852H31.7664C32.0025 23.2852 32.1939 23.4849 32.1939 23.7311C32.1939 23.9773 32.0025 24.177 31.7664 24.177H24.8325C24.5965 24.177 24.4051 23.9773 24.4051 23.7311C24.4051 23.4849 24.5965 23.2852 24.8325 23.2852Z" fill="#CDCDCD"/>
<path d="M20.8953 20.7325H26.7794C27.0154 20.7325 27.2068 20.9322 27.2068 21.1784C27.2068 21.4246 27.0154 21.6243 26.7794 21.6243H20.8953C20.6592 21.6243 20.4678 21.4246 20.4678 21.1784C20.4678 20.9321 20.6592 20.7325 20.8953 20.7325Z" fill="#CDCDCD"/>
<path d="M20.8953 23.2852H22.4426C22.6787 23.2852 22.8701 23.4849 22.8701 23.7311C22.8701 23.9773 22.6786 24.177 22.4426 24.177H20.8953C20.6592 24.177 20.4679 23.9773 20.4679 23.7311C20.4679 23.4848 20.6592 23.2852 20.8953 23.2852Z" fill="#CDCDCD"/>
<path d="M27.8958 25.838H31.7665C32.0025 25.838 32.1939 26.0376 32.1939 26.2838C32.1939 26.5301 32.0025 26.7297 31.7665 26.7297H27.8958C27.6598 26.7297 27.4684 26.53 27.4684 26.2838C27.4684 26.0376 27.6598 25.838 27.8958 25.838Z" fill="#CDCDCD"/>
<path d="M20.8952 25.838H25.6245C25.8606 25.838 26.0519 26.0376 26.0519 26.2838C26.0519 26.5301 25.8605 26.7297 25.6245 26.7297H20.8952C20.6592 26.7297 20.4678 26.53 20.4678 26.2838C20.4678 26.0376 20.6592 25.838 20.8952 25.838Z" fill="#CDCDCD"/>
</svg>
